<?xml version="1.0" encoding="utf-8"?>
<!-- Generator: Adobe Illustrator 27.8.1, SVG Export Plug-In . SVG Version: 6.00 Build 0)  -->
<svg version="1.1" id="Layer_1" xmlns="http://www.w3.org/2000/svg" xmlns:xlink="http://www.w3.org/1999/xlink" x="0px" y="0px"
	 viewBox="0 0 386 304" style="enable-background:new 0 0 386 304;" xml:space="preserve">
<style type="text/css">
	.st0{fill:#FFFFFF;}
	.st1{fill:#DE7226;}
	.st2{enable-background:new    ;}
	.st3{fill:#020202;}
</style>
<g>
	<rect x="12.6" y="123.5" class="st0" width="356.4" height="82.4"/>
	<rect x="10.1" y="121" class="st1" width="356.4" height="82.4"/>
	<g>
		<path class="st1" d="M76.4,44.2V8.6h20.8v102.7H77.2V102c-8.3,10.8-18.4,12.9-29,12.1c-9.7-0.7-18.5-4.5-25.2-13.5
			c-10.3-14-9.6-39.9,1.4-54.1C35.6,32,61.4,27.7,76.4,44.2L76.4,44.2z M57.2,52.2c-11.1,0-18.5,7.3-19.7,19.3
			C36.3,82.7,42,92.1,51.8,94.9c2.6,0.8,5.5,0.6,8.3,0.5c7.2-0.2,14.2-6.2,16.1-14.4C80.8,61.9,68.3,51.1,57.2,52.2L57.2,52.2z"/>
		<path class="st1" d="M191.7,80.2h-61.4c0.1,5.1,1.9,8.9,4.8,11.9c8.9,9.5,24.9,8.3,32.7-2.4c0.5-0.7,1.4-1.4,2.1-1.4
			c6.8-0.1,13.6-0.1,21-0.1c-3.5,10.7-9.5,17.7-17.9,21.3c-14.9,6.5-30.1,6.6-44.9,0.1c-15.4-6.8-21-22.5-19.5-41.1
			c1.9-24.6,16.9-32.6,31.5-35.1c8.6-1.5,17.2-1.3,25.7,1.1C183.5,39.5,194,57.9,191.7,80.2L191.7,80.2z M130.5,65.5h39.3
			c0.2-8-7.2-16.1-15.2-16.8C140.9,47.5,131.8,53.7,130.5,65.5L130.5,65.5z"/>
		<path class="st1" d="M281.6,88.2c-4,11.7-10.8,18.8-20.2,22.4c-13.1,4.9-26.4,5-39.6,0.3c-17.7-6.2-24.1-22.9-22.6-42.2
			c1.8-24.7,16.6-32.7,31.3-35.3c8.7-1.5,17.5-1.3,26.1,1.1c17.6,5.1,27.1,21.6,26,45.4h-61.7c0.6,8.5,4.6,13.4,10.4,16.2
			c6.4,3.1,13.1,3.1,19.6,0.4c2.2-0.9,4.6-2.5,5.9-4.6c2-3.3,4.3-3.9,7.4-3.8C269.7,88.4,275.3,88.2,281.6,88.2L281.6,88.2z
			 M260.4,65.5c0.3-9.4-8.1-16.8-18.9-17.1c-10.9-0.3-20.2,7.6-20.1,17.1H260.4L260.4,65.5z"/>
		<path class="st1" d="M329.7,54h-37.9V35.5h67.5c0,4.8,0.1,9.6-0.1,14.5c-0.1,1.2-1.4,2.4-2.3,3.3c-12.4,12.9-24.8,25.7-37.8,39.2
			h41.3v18.8h-71.1c0-4.9-0.1-9.7,0.1-14.6c0.1-1.2,1.3-2.4,2.2-3.4c11.4-11.9,22.9-23.7,34.3-35.5C326.9,56.9,327.9,55.9,329.7,54
			L329.7,54z"/>
	</g>
	<g>
		<path class="st0" d="M73.9,41.7V6.1h20.8v102.7H74.6v-9.3c-8.3,10.8-18.4,12.9-29,12.1c-9.7-0.7-18.5-4.5-25.2-13.5
			c-10.3-14-9.6-39.9,1.4-54.1C33.1,29.4,58.8,25.2,73.9,41.7L73.9,41.7z M54.7,49.7C43.6,49.7,36.2,57,34.9,69
			c-1.1,11.1,4.5,20.5,14.3,23.3c2.6,0.8,5.5,0.6,8.3,0.5c7.2-0.2,14.2-6.2,16.1-14.4C78.2,59.4,65.8,48.5,54.7,49.7L54.7,49.7z"/>
		<path class="st0" d="M189.2,77.7h-61.4c0.1,5.1,1.9,8.9,4.8,11.9c8.9,9.5,24.9,8.3,32.7-2.4c0.5-0.7,1.4-1.4,2.1-1.4
			c6.8-0.1,13.6-0.1,21-0.1c-3.5,10.7-9.5,17.7-17.9,21.3c-14.9,6.5-30.1,6.6-44.9,0.1c-15.4-6.8-21-22.5-19.5-41.1
			c1.9-24.6,16.9-32.6,31.5-35.1c8.6-1.5,17.2-1.3,25.7,1.1C180.9,37,191.4,55.3,189.2,77.7L189.2,77.7z M127.9,62.9h39.3
			c0.2-8-7.2-16.1-15.2-16.8C138.4,44.9,129.3,51.1,127.9,62.9z"/>
		<path class="st0" d="M279.1,85.7c-4,11.7-10.8,18.8-20.2,22.4c-13.1,4.9-26.4,5-39.6,0.3c-17.7-6.2-24.1-22.9-22.6-42.2
			c1.8-24.7,16.6-32.7,31.3-35.3c8.7-1.5,17.5-1.3,26.1,1.1c17.6,5.1,27.1,21.6,26,45.4h-61.7c0.6,8.5,4.6,13.4,10.4,16.2
			c6.4,3.1,13.1,3.1,19.6,0.4c2.2-0.9,4.6-2.5,5.9-4.6c2-3.3,4.3-3.9,7.4-3.8C267.2,85.9,272.8,85.7,279.1,85.7L279.1,85.7z
			 M257.9,62.9c0.3-9.4-8.1-16.8-18.9-17.1c-10.9-0.3-20.2,7.6-20.1,17.1H257.9L257.9,62.9z"/>
		<path class="st0" d="M327.2,51.4h-37.9V33h67.5c0,4.8,0.1,9.6-0.1,14.5c-0.1,1.2-1.4,2.4-2.3,3.3c-12.4,12.9-24.8,25.7-37.8,39.2
			h41.3v18.8h-71.1c0-4.9-0.1-9.7,0.1-14.6c0.1-1.2,1.3-2.4,2.2-3.4C300.6,79,312,67.1,323.5,55.3C324.4,54.3,325.3,53.3,327.2,51.4
			L327.2,51.4z"/>
	</g>
	<g class="st2">
		<path class="st3" d="M19,128.9h26.5c3.9,0,7.4,0.5,10.4,1.6c3.1,1.1,5.7,2.6,7.8,4.6c2.1,2,3.8,4.3,4.9,7.1
			c1.1,2.7,1.7,5.8,1.7,9.1v0.2c0,3.8-0.7,7.1-2,9.9c-1.4,2.8-3.2,5.2-5.6,7.1c-2.4,1.9-5.2,3.4-8.3,4.3c-3.2,1-6.6,1.4-10.2,1.4
			H33.3v19.5H19V128.9z M44.6,161.6c3.6,0,6.4-0.9,8.3-2.8c2-1.9,3-4.2,3-7v-0.2c0-3.2-1-5.7-3.1-7.3c-2.1-1.7-4.9-2.5-8.5-2.5h-11
			v19.8H44.6z"/>
		<path class="st3" d="M80.9,128.9h29.6c8.2,0,14.5,2.2,18.9,6.6c3.7,3.7,5.6,8.6,5.6,14.8v0.2c0,5.2-1.3,9.5-3.8,12.8
			c-2.6,3.3-5.9,5.7-10.1,7.3l15.8,23.2h-16.7L106.4,173h-0.2h-11v20.7H80.9V128.9z M109.6,160.4c3.5,0,6.2-0.8,8.1-2.5
			c1.9-1.7,2.8-3.9,2.8-6.7V151c0-3.1-1-5.4-3-6.9c-2-1.5-4.7-2.3-8.2-2.3H95.2v18.6H109.6z"/>
		<path class="st3" d="M148.5,128.9h14.3v64.8h-14.3V128.9z"/>
		<path class="st3" d="M179,128.9h13.2l30.4,39.9v-39.9h14.1v64.8h-12.1l-31.4-41.2v41.2H179V128.9z"/>
		<path class="st3" d="M267.3,142h-19.7v-13.2h53.7V142h-19.7v51.7h-14.3V142z"/>
		<path class="st3" d="M335.4,194.6c-4.9,0-9.8-0.8-14.5-2.5c-4.8-1.7-9.1-4.3-13-7.8l8.4-10.1c3,2.4,6,4.3,9.1,5.7
			c3.1,1.4,6.5,2.1,10.2,2.1c3,0,5.3-0.5,6.9-1.6c1.6-1.1,2.5-2.6,2.5-4.5v-0.2c0-0.9-0.2-1.7-0.5-2.5c-0.3-0.7-1-1.4-2-2
			c-1-0.6-2.3-1.2-4-1.9c-1.7-0.6-3.9-1.3-6.6-1.9c-3.3-0.8-6.3-1.7-8.9-2.7c-2.7-1-4.9-2.2-6.8-3.7c-1.9-1.5-3.3-3.3-4.3-5.4
			c-1-2.2-1.5-4.8-1.5-8.1v-0.2c0-3,0.6-5.6,1.7-8c1.1-2.4,2.7-4.4,4.6-6.2c2-1.7,4.4-3.1,7.1-4c2.8-0.9,5.8-1.4,9.2-1.4
			c4.8,0,9.1,0.7,13.1,2.1c4,1.4,7.6,3.5,11,6.1l-7.4,10.7c-2.9-2-5.7-3.5-8.5-4.7c-2.8-1.1-5.6-1.7-8.3-1.7s-4.9,0.5-6.3,1.6
			c-1.4,1.1-2.1,2.4-2.1,4v0.2c0,1.1,0.2,2,0.6,2.7c0.4,0.8,1.1,1.5,2.2,2.1c1.1,0.6,2.5,1.2,4.3,1.8c1.8,0.6,4.1,1.2,6.9,1.9
			c3.3,0.9,6.2,1.8,8.8,2.9c2.6,1.1,4.7,2.4,6.5,3.9c1.8,1.5,3.1,3.3,4,5.3c0.9,2,1.3,4.5,1.3,7.3v0.2c0,3.2-0.6,6.1-1.7,8.6
			c-1.2,2.5-2.8,4.6-4.9,6.3c-2.1,1.7-4.6,3-7.5,3.9C342.1,194.2,338.9,194.6,335.4,194.6z"/>
	</g>
</g>
<g class="st2">
	<path class="st0" d="M325.9,219.1c0-2.4,1.3-4.3,3.6-5.6l0.4,0.7c-2,1.3-3,2.8-3,4.9s1,3.6,3,4.9l-0.4,0.7
		C327.2,223.4,325.9,221.5,325.9,219.1z"/>
	<path class="st0" d="M331.3,222.1l3.3-2.9c1.4-1.2,1.9-2,1.9-2.9c0-1.1-0.8-1.7-1.8-1.7c-1,0-1.7,0.5-2.4,1.6l-0.8-0.5
		c0.8-1.2,1.7-1.9,3.3-1.9c1.6,0,2.8,1.1,2.8,2.6v0c0,1.3-0.7,2.1-2.3,3.5l-2.4,2.2h4.8v0.9h-6.4V222.1z"/>
	<path class="st0" d="M339.2,218.4L339.2,218.4c0-2.6,1.5-4.7,3.9-4.7s3.8,2.1,3.8,4.7v0c0,2.5-1.5,4.7-3.8,4.7
		C340.7,223,339.2,220.9,339.2,218.4z M345.9,218.4L345.9,218.4c0-2-1.1-3.8-2.8-3.8c-1.7,0-2.8,1.7-2.8,3.7v0c0,2,1.1,3.8,2.8,3.8
		S345.9,220.3,345.9,218.4z"/>
	<path class="st0" d="M348.2,222.1l3.3-2.9c1.4-1.2,1.9-2,1.9-2.9c0-1.1-0.8-1.7-1.8-1.7c-1,0-1.7,0.5-2.4,1.6l-0.8-0.5
		c0.8-1.2,1.7-1.9,3.3-1.9c1.6,0,2.8,1.1,2.8,2.6v0c0,1.3-0.7,2.1-2.3,3.5l-2.4,2.2h4.8v0.9h-6.4V222.1z"/>
	<path class="st0" d="M356,221.4l0.8-0.7c0.7,0.9,1.5,1.4,2.7,1.4c1.1,0,2-0.7,2-1.8v0c0-1.1-1.1-1.8-2.5-1.8h-0.6l-0.2-0.6l2.9-3.2
		h-4.4v-0.9h5.8v0.8l-2.9,3.2c1.6,0.1,3,0.9,3,2.6v0c0,1.6-1.4,2.7-3,2.7C357.9,223,356.8,222.4,356,221.4z"/>
	<path class="st0" d="M364.1,224c2-1.3,3-2.8,3-4.9s-1-3.6-3-4.9l0.4-0.7c2.3,1.3,3.6,3.2,3.6,5.6c0,2.4-1.3,4.3-3.6,5.6L364.1,224z
		"/>
</g>
<g class="st2">
	<path class="st0" d="M11.7,219.1c0-2.4,1.3-4.3,3.6-5.6l0.4,0.7c-2,1.3-3,2.8-3,4.9s1,3.6,3,4.9l-0.4,0.7
		C13,223.4,11.7,221.5,11.7,219.1z"/>
	<path class="st0" d="M17.8,213.8h3.4c2.1,0,3.4,1.1,3.4,2.9v0c0,2-1.6,3-3.6,3h-2.2v3.2h-1V213.8z M21,218.7c1.5,0,2.5-0.8,2.5-2v0
		c0-1.3-1-2-2.4-2h-2.3v4H21z"/>
	<path class="st0" d="M28.9,213.7h1l4.1,9.2h-1.1l-1.1-2.4h-5l-1.1,2.4h-1.1L28.9,213.7z M31.4,219.5l-2.1-4.6l-2.1,4.6H31.4z"/>
	<path class="st0" d="M35.8,213.8h1v5.4l5.2-5.4h1.3l-3.9,4l4.1,5.1h-1.3l-3.5-4.4l-1.9,2v2.4h-1V213.8z"/>
	<path class="st0" d="M49.1,213.8h6.6v0.9h-5.6v3.1h5v0.9h-5v3.2h5.6v0.9h-6.6V213.8z"/>
	<path class="st0" d="M57.2,221.6l0.6-0.8c0.9,0.9,1.9,1.3,3.1,1.3c1.2,0,2-0.7,2-1.5v0c0-0.8-0.5-1.3-2.4-1.7
		c-2.1-0.5-3.1-1.1-3.1-2.6v0c0-1.4,1.3-2.5,3-2.5c1.3,0,2.3,0.4,3.2,1.1l-0.6,0.8c-0.8-0.7-1.7-1-2.6-1c-1.2,0-1.9,0.7-1.9,1.5v0
		c0,0.9,0.5,1.3,2.5,1.8c2,0.4,3,1.2,3,2.6v0c0,1.6-1.3,2.6-3.1,2.6C59.4,223,58.3,222.5,57.2,221.6z"/>
	<path class="st0" d="M68.3,214.7h-3.1v-0.9h7.1v0.9h-3.1v8.2h-1V214.7z"/>
	<path class="st0" d="M72.7,221.5h1.2v1.4h-1.2V221.5z"/>
	<path class="st0" d="M75.6,224c2-1.3,3-2.8,3-4.9s-1-3.6-3-4.9l0.4-0.7c2.3,1.3,3.6,3.2,3.6,5.6c0,2.4-1.3,4.3-3.6,5.6L75.6,224z"
		/>
</g>
<g>
	<path class="st0" d="M8.1,240h2.6l3.8,11.2l3.8-11.2h2.5v13.2H19v-7.8c0-0.3,0-0.7,0-1.3s0-1.3,0-2l-3.8,11.2h-1.8l-3.8-11.2v0.4
		c0,0.3,0,0.8,0,1.5c0,0.7,0,1.1,0,1.5v7.8H8.1L8.1,240L8.1,240z"/>
	<path class="st0" d="M34.4,241.9c0.9,1.2,1.3,2.7,1.3,4.5c0,2-0.5,3.6-1.5,4.9c-1.2,1.5-2.9,2.3-5,2.3c-2,0-3.6-0.7-4.8-2
		c-1-1.3-1.6-2.9-1.6-4.9c0-1.8,0.4-3.3,1.3-4.6c1.1-1.6,2.8-2.4,5.1-2.4S33.3,240.4,34.4,241.9L34.4,241.9z M32.8,250.4
		c0.7-1.1,1.1-2.4,1.1-3.9c0-1.6-0.4-2.8-1.2-3.8c-0.8-0.9-1.9-1.4-3.3-1.4s-2.5,0.5-3.4,1.4c-0.9,0.9-1.3,2.3-1.3,4.2
		c0,1.5,0.4,2.7,1.1,3.7s2,1.5,3.6,1.5S32.1,251.5,32.8,250.4L32.8,250.4z"/>
	<path class="st0" d="M37.9,240h5.4c1.8,0,3.2,0.6,4.2,1.9c0.9,1.2,1.3,2.7,1.3,4.5c0,1.4-0.3,2.7-0.8,3.8c-0.9,2-2.5,3-4.8,3h-5.3
		V240z M42.9,251.8c0.6,0,1.1-0.1,1.5-0.2c0.7-0.2,1.3-0.7,1.7-1.4c0.3-0.5,0.6-1.2,0.8-2.1c0.1-0.5,0.1-1,0.1-1.4
		c0-1.6-0.3-2.9-1-3.8s-1.7-1.4-3.2-1.4h-3.2v10.2L42.9,251.8L42.9,251.8z"/>
	<path class="st0" d="M51.4,240H61v1.6h-7.9v4h7.3v1.5h-7.3v4.5h8v1.6h-9.8L51.4,240L51.4,240z"/>
	<path class="st0" d="M63.7,240h6.1c1,0,1.8,0.1,2.5,0.4c1.2,0.6,1.9,1.6,1.9,3.1c0,0.8-0.2,1.4-0.5,1.9c-0.3,0.5-0.8,0.9-1.4,1.2
		c0.5,0.2,0.9,0.5,1.2,0.8s0.4,0.9,0.4,1.7l0.1,1.8c0,0.5,0.1,0.9,0.1,1.1c0.1,0.4,0.3,0.7,0.6,0.8v0.3h-2.2
		c-0.1-0.1-0.1-0.3-0.1-0.4c0-0.2-0.1-0.5-0.1-1.1l-0.1-2.2c0-0.9-0.4-1.4-1-1.7c-0.3-0.2-0.9-0.2-1.6-0.2h-4.1v5.7h-1.8L63.7,240
		L63.7,240z M69.7,246.1c0.8,0,1.5-0.2,2-0.5c0.5-0.3,0.7-0.9,0.7-1.8c0-0.9-0.3-1.6-1-1.9c-0.4-0.2-0.9-0.3-1.5-0.3h-4.4v4.5
		L69.7,246.1L69.7,246.1z"/>
	<path class="st0" d="M76.8,240H79l6.7,10.7V240h1.7v13.2h-2l-6.8-10.7v10.7h-1.7V240z"/>
	<path class="st0" d="M95.5,240h6c1.2,0,2.1,0.3,2.8,1s1.1,1.6,1.1,2.8c0,1-0.3,1.9-1,2.7s-1.6,1.1-3,1.1h-4.2v5.6h-1.8V240z
		 M102.5,241.9c-0.4-0.2-0.9-0.3-1.6-0.3h-3.6v4.6h3.6c0.8,0,1.5-0.2,2-0.5s0.8-0.9,0.8-1.8C103.6,242.9,103.2,242.2,102.5,241.9
		L102.5,241.9z"/>
	<path class="st0" d="M107.9,240h6.1c1,0,1.8,0.1,2.5,0.4c1.2,0.6,1.9,1.6,1.9,3.1c0,0.8-0.2,1.4-0.5,1.9c-0.3,0.5-0.8,0.9-1.4,1.2
		c0.5,0.2,0.9,0.5,1.2,0.8s0.4,0.9,0.4,1.7l0.1,1.8c0,0.5,0.1,0.9,0.1,1.1c0.1,0.4,0.3,0.7,0.6,0.8v0.3h-2.2
		c-0.1-0.1-0.1-0.3-0.1-0.4c0-0.2-0.1-0.5-0.1-1.1l-0.1-2.2c0-0.9-0.4-1.4-1-1.7c-0.3-0.2-0.9-0.2-1.6-0.2h-4.1v5.7h-1.8V240
		L107.9,240z M113.8,246.1c0.8,0,1.5-0.2,2-0.5c0.5-0.3,0.7-0.9,0.7-1.8c0-0.9-0.3-1.6-1-1.9c-0.4-0.2-0.9-0.3-1.5-0.3h-4.4v4.5
		L113.8,246.1L113.8,246.1z"/>
	<path class="st0" d="M121.4,240h1.8v13.2h-1.8V240z"/>
	<path class="st0" d="M126.1,240h2.1l6.7,10.7V240h1.7v13.2h-2l-6.8-10.7v10.7h-1.7V240z"/>
	<path class="st0" d="M149.1,240v1.6h-4.5v11.7h-1.8v-11.7h-4.5V240H149.1L149.1,240z"/>
	<path class="st0" d="M151.1,240h1.8v13.2h-1.8V240z"/>
	<path class="st0" d="M155.9,240h2.1l6.7,10.7V240h1.7v13.2h-2l-6.8-10.7v10.7h-1.7V240z"/>
	<path class="st0" d="M178.2,240.4c1.3,0.7,2.1,1.9,2.4,3.6h-1.8c-0.2-1-0.7-1.7-1.3-2.1s-1.5-0.7-2.6-0.7c-1.2,0-2.3,0.5-3.1,1.4
		c-0.8,0.9-1.3,2.3-1.3,4.1c0,1.6,0.4,2.9,1,3.9c0.7,1,1.8,1.5,3.4,1.5c1.2,0,2.2-0.4,3-1s1.2-1.8,1.2-3.4H175v-1.5h5.8v7.1h-1.1
		l-0.4-1.7c-0.6,0.7-1.1,1.1-1.6,1.4c-0.8,0.4-1.8,0.7-3,0.7c-1.6,0-2.9-0.5-4.1-1.5c-1.2-1.3-1.9-3-1.9-5.2s0.6-4,1.8-5.3
		c1.1-1.2,2.6-1.9,4.4-1.9C176.2,239.7,177.3,239.9,178.2,240.4L178.2,240.4z"/>
	<path class="st0" d="M189.9,249c0,0.8,0.2,1.4,0.5,1.8c0.6,0.9,1.6,1.3,3.1,1.3c0.7,0,1.3-0.1,1.8-0.3c1.1-0.4,1.6-1,1.6-2
		c0-0.7-0.2-1.2-0.7-1.5c-0.5-0.3-1.2-0.6-2.1-0.8l-1.8-0.4c-1.2-0.3-2-0.6-2.5-0.9c-0.8-0.6-1.3-1.4-1.3-2.5c0-1.2,0.4-2.2,1.2-2.9
		c0.8-0.8,2-1.1,3.5-1.1c1.4,0,2.6,0.3,3.5,1c1,0.7,1.5,1.7,1.5,3.2h-1.7c-0.1-0.7-0.3-1.2-0.6-1.6c-0.6-0.7-1.5-1-2.8-1
		c-1.1,0-1.8,0.2-2.3,0.7c-0.5,0.4-0.7,1-0.7,1.6c0,0.6,0.3,1.1,0.8,1.4c0.4,0.2,1.2,0.4,2.4,0.7l1.9,0.4c0.9,0.2,1.6,0.5,2.1,0.8
		c0.8,0.6,1.3,1.5,1.3,2.7c0,1.5-0.5,2.5-1.6,3.1c-1.1,0.6-2.3,0.9-3.7,0.9c-1.6,0-2.9-0.4-3.9-1.3s-1.4-2-1.4-3.4L189.9,249
		L189.9,249z"/>
	<path class="st0" d="M211.9,241.9c0.9,1.2,1.3,2.7,1.3,4.5c0,2-0.5,3.6-1.5,4.9c-1.2,1.5-2.9,2.3-5,2.3c-2,0-3.6-0.7-4.8-2
		c-1-1.3-1.6-2.9-1.6-4.9c0-1.8,0.4-3.3,1.3-4.6c1.1-1.6,2.8-2.4,5.1-2.4S210.8,240.4,211.9,241.9L211.9,241.9z M210.4,250.4
		c0.7-1.1,1.1-2.4,1.1-3.9c0-1.6-0.4-2.8-1.2-3.8s-1.9-1.4-3.3-1.4s-2.5,0.5-3.4,1.4c-0.9,0.9-1.3,2.3-1.3,4.2
		c0,1.5,0.4,2.7,1.1,3.7s1.9,1.5,3.6,1.5S209.7,251.5,210.4,250.4L210.4,250.4z"/>
	<path class="st0" d="M215.4,240h1.8v11.7h6.7v1.6h-8.5V240z"/>
	<path class="st0" d="M227.6,240v8.2c0,1,0.2,1.8,0.5,2.4c0.5,1,1.4,1.4,2.7,1.4c1.5,0,2.6-0.5,3.1-1.6c0.3-0.6,0.4-1.3,0.4-2.3V240
		h1.8v7.4c0,1.6-0.2,2.9-0.7,3.8c-0.8,1.6-2.3,2.4-4.6,2.4s-3.8-0.8-4.6-2.4c-0.4-0.9-0.7-2.1-0.7-3.8V240H227.6L227.6,240z"/>
	<path class="st0" d="M248.6,240v1.6h-4.5v11.7h-1.8v-11.7h-4.5V240H248.6L248.6,240z"/>
	<path class="st0" d="M250.7,240h1.8v13.2h-1.8V240z"/>
	<path class="st0" d="M266.3,241.9c0.9,1.2,1.3,2.7,1.3,4.5c0,2-0.5,3.6-1.5,4.9c-1.2,1.5-2.9,2.3-5,2.3c-2,0-3.6-0.7-4.8-2
		c-1-1.3-1.6-2.9-1.6-4.9c0-1.8,0.4-3.3,1.3-4.6c1.1-1.6,2.8-2.4,5.1-2.4S265.2,240.4,266.3,241.9L266.3,241.9z M264.8,250.4
		c0.7-1.1,1.1-2.4,1.1-3.9c0-1.6-0.4-2.8-1.2-3.8s-1.9-1.4-3.3-1.4s-2.5,0.5-3.4,1.4c-0.9,0.9-1.3,2.3-1.3,4.2
		c0,1.5,0.4,2.7,1.1,3.7s2,1.5,3.6,1.5S264,251.5,264.8,250.4L264.8,250.4z"/>
	<path class="st0" d="M269.8,240h2.1l6.7,10.7V240h1.7v13.2h-2l-6.8-10.7v10.7h-1.7V240z"/>
	<path class="st0" d="M288.4,240h9.2v1.6h-7.4v4h6.5v1.6h-6.5v6h-1.8V240L288.4,240z"/>
	<path class="st0" d="M310.5,241.9c0.9,1.2,1.3,2.7,1.3,4.5c0,2-0.5,3.6-1.5,4.9c-1.2,1.5-2.9,2.3-5,2.3c-2,0-3.6-0.7-4.8-2
		c-1-1.3-1.6-2.9-1.6-4.9c0-1.8,0.4-3.3,1.3-4.6c1.1-1.6,2.8-2.4,5.1-2.4S309.3,240.4,310.5,241.9L310.5,241.9z M308.9,250.4
		c0.7-1.1,1.1-2.4,1.1-3.9c0-1.6-0.4-2.8-1.2-3.8s-1.9-1.4-3.3-1.4s-2.5,0.5-3.4,1.4s-1.3,2.3-1.3,4.2c0,1.5,0.4,2.7,1.1,3.7
		s2,1.5,3.6,1.5S308.2,251.5,308.9,250.4L308.9,250.4z"/>
	<path class="st0" d="M323.4,241c0.9,0.9,1.4,1.9,1.5,3h-1.8c-0.2-0.9-0.6-1.5-1.2-2c-0.6-0.5-1.4-0.8-2.5-0.8
		c-1.3,0-2.4,0.5-3.2,1.4s-1.2,2.3-1.2,4.2c0,1.6,0.4,2.8,1.1,3.8s1.8,1.4,3.2,1.4c1.3,0,2.3-0.5,3-1.5c0.4-0.5,0.6-1.2,0.8-2.1h1.8
		c-0.2,1.4-0.7,2.6-1.5,3.5c-1,1.1-2.5,1.7-4.3,1.7c-1.5,0-2.8-0.5-3.9-1.4c-1.4-1.2-2.1-3.1-2.1-5.7c0-1.9,0.5-3.6,1.5-4.8
		c1.1-1.4,2.7-2,4.6-2C321.2,239.7,322.5,240.1,323.4,241L323.4,241z"/>
	<path class="st0" d="M329.2,240v8.2c0,1,0.2,1.8,0.5,2.4c0.5,1,1.4,1.4,2.7,1.4c1.5,0,2.6-0.5,3.1-1.6c0.3-0.6,0.4-1.3,0.4-2.3V240
		h1.8v7.4c0,1.6-0.2,2.9-0.7,3.8c-0.8,1.6-2.3,2.4-4.6,2.4s-3.8-0.8-4.5-2.4c-0.4-0.9-0.7-2.1-0.7-3.8V240H329.2L329.2,240z"/>
	<path class="st0" d="M341.8,249c0,0.8,0.2,1.4,0.5,1.8c0.6,0.9,1.6,1.3,3.1,1.3c0.7,0,1.3-0.1,1.8-0.3c1.1-0.4,1.6-1,1.6-2
		c0-0.7-0.2-1.2-0.7-1.5c-0.5-0.3-1.2-0.6-2.1-0.8l-1.8-0.4c-1.2-0.3-2-0.6-2.5-0.9c-0.8-0.6-1.3-1.4-1.3-2.5c0-1.2,0.4-2.2,1.2-2.9
		s2-1.1,3.5-1.1c1.4,0,2.6,0.3,3.5,1s1.5,1.7,1.5,3.2h-1.7c-0.1-0.7-0.3-1.2-0.6-1.6c-0.5-0.7-1.5-1-2.8-1c-1.1,0-1.8,0.2-2.3,0.7
		s-0.7,1-0.7,1.6c0,0.6,0.3,1.1,0.8,1.4c0.4,0.2,1.2,0.4,2.4,0.7l1.9,0.4c0.9,0.2,1.6,0.5,2.1,0.8c0.8,0.6,1.3,1.5,1.3,2.7
		c0,1.5-0.5,2.5-1.6,3.1c-1.1,0.6-2.3,0.9-3.7,0.9c-1.6,0-2.9-0.4-3.9-1.3s-1.4-2-1.4-3.4L341.8,249L341.8,249z"/>
	<path class="st0" d="M353.1,240h9.7v1.6h-7.9v4h7.3v1.5h-7.3v4.5h8v1.6h-9.8L353.1,240L353.1,240z"/>
	<path class="st0" d="M365.3,240h5.4c1.8,0,3.2,0.6,4.2,1.9c0.9,1.2,1.3,2.7,1.3,4.5c0,1.4-0.3,2.7-0.8,3.8c-0.9,2-2.5,3-4.8,3h-5.4
		L365.3,240L365.3,240z M370.3,251.8c0.6,0,1.1-0.1,1.5-0.2c0.7-0.2,1.3-0.7,1.7-1.4c0.4-0.5,0.6-1.2,0.8-2.1c0.1-0.5,0.1-1,0.1-1.4
		c0-1.6-0.3-2.9-1-3.8s-1.7-1.4-3.1-1.4h-3.2v10.2L370.3,251.8L370.3,251.8z"/>
	<path class="st0" d="M19,264.1c0.9,1.2,1.3,2.7,1.3,4.5c0,2-0.5,3.6-1.5,4.9c-1.2,1.5-2.9,2.3-5,2.3c-2,0-3.6-0.7-4.8-2
		c-1-1.3-1.6-2.9-1.6-4.9c0-1.8,0.4-3.3,1.3-4.6c1.1-1.6,2.8-2.5,5.1-2.5S17.9,262.6,19,264.1L19,264.1z M17.4,272.5
		c0.7-1.1,1.1-2.4,1.1-3.9c0-1.6-0.4-2.8-1.2-3.8s-1.9-1.4-3.3-1.4s-2.5,0.5-3.4,1.4c-0.9,0.9-1.3,2.3-1.3,4.2
		c0,1.5,0.4,2.7,1.1,3.7s1.9,1.5,3.6,1.5S16.7,273.7,17.4,272.5L17.4,272.5z"/>
	<path class="st0" d="M22.5,262.2h2.1l6.7,10.7v-10.7H33v13.2h-2l-6.8-10.7v10.7h-1.7V262.2z"/>
	<path class="st0" d="M41.3,262.2h1.8v13.2h-1.8V262.2z"/>
	<path class="st0" d="M46,262.2h2.6l3.8,11.2l3.8-11.2h2.5v13.2H57v-7.8c0-0.3,0-0.7,0-1.3s0-1.3,0-2l-3.8,11.2h-1.8l-3.8-11.2v0.4
		c0,0.3,0,0.8,0,1.5s0,1.1,0,1.5v7.8H46L46,262.2L46,262.2z"/>
	<path class="st0" d="M61.6,262.2h6c1.2,0,2.1,0.3,2.8,1s1.1,1.6,1.1,2.8c0,1-0.3,1.9-1,2.7c-0.6,0.8-1.6,1.1-3,1.1h-4.2v5.6h-1.8
		C61.6,275.5,61.6,262.2,61.6,262.2z M68.6,264c-0.4-0.2-0.9-0.3-1.6-0.3h-3.6v4.6H67c0.8,0,1.5-0.2,2-0.5s0.8-1,0.8-1.8
		C69.7,265,69.4,264.4,68.6,264L68.6,264z"/>
	<path class="st0" d="M76.3,262.2h2l4.8,13.2h-2l-1.3-4h-5.2l-1.4,4h-1.8L76.3,262.2L76.3,262.2z M79.2,270l-2-5.9l-2.1,5.9H79.2z"
		/>
	<path class="st0" d="M94.2,263.2c0.9,0.9,1.4,1.9,1.5,3H94c-0.2-0.9-0.6-1.5-1.2-2c-0.6-0.5-1.4-0.8-2.5-0.8
		c-1.3,0-2.4,0.5-3.2,1.4S86,267.1,86,269c0,1.5,0.4,2.8,1.1,3.8s1.8,1.5,3.2,1.5c1.3,0,2.3-0.5,3-1.5c0.4-0.5,0.6-1.2,0.8-2.1h1.8
		c-0.2,1.4-0.7,2.6-1.6,3.5c-1.1,1.1-2.5,1.7-4.3,1.7c-1.5,0-2.8-0.5-3.9-1.4c-1.4-1.2-2.1-3.1-2.1-5.7c0-2,0.5-3.6,1.6-4.8
		c1.1-1.4,2.7-2,4.6-2C92,261.8,93.3,262.3,94.2,263.2L94.2,263.2z"/>
	<path class="st0" d="M107.7,262.2v1.6h-4.5v11.7h-1.8v-11.7H97v-1.6H107.7L107.7,262.2z"/>
	<path class="st0" d="M107.4,277.3c0.4-0.1,0.7-0.4,0.9-0.9c0.1-0.3,0.1-0.5,0.1-0.8c0,0,0-0.1,0-0.1s0-0.1,0-0.1h-1v-2h1.9v1.8
		c0,0.7-0.1,1.3-0.4,1.9s-0.8,0.9-1.5,1L107.4,277.3L107.4,277.3z"/>
	<path class="st0" d="M117.7,262.2h5.4c1.8,0,3.2,0.6,4.2,1.9c0.9,1.2,1.3,2.7,1.3,4.5c0,1.4-0.3,2.7-0.8,3.8c-0.9,2-2.5,3-4.8,3
		h-5.3L117.7,262.2L117.7,262.2z M122.7,273.9c0.6,0,1.1-0.1,1.5-0.2c0.7-0.2,1.3-0.7,1.7-1.4c0.3-0.5,0.6-1.2,0.8-2.1
		c0.1-0.5,0.1-1,0.1-1.4c0-1.6-0.3-2.9-1-3.8s-1.7-1.4-3.2-1.4h-3.2v10.2H122.7L122.7,273.9z"/>
	<path class="st0" d="M131.1,262.2h9.7v1.6h-7.9v4h7.3v1.5h-7.3v4.5h8.1v1.6h-9.8L131.1,262.2L131.1,262.2z"/>
	<path class="st0" d="M152.9,262.2v1.6h-4.5v11.7h-1.8v-11.7h-4.5v-1.6H152.9L152.9,262.2z"/>
	<path class="st0" d="M157,262.2h2l4.8,13.2h-2l-1.3-4h-5.2l-1.4,4H152L157,262.2L157,262.2z M159.9,270l-2-5.9l-2.1,5.9H159.9z"/>
	<path class="st0" d="M165.9,262.2h1.8v13.2h-1.8V262.2z"/>
	<path class="st0" d="M170.6,262.2h1.8v11.7h6.7v1.6h-8.5V262.2z"/>
	<path class="st0" d="M186.6,266.5c-0.2-0.4-0.3-0.9-0.3-1.3c0-0.9,0.3-1.6,0.9-2.1s1.4-0.8,2.3-0.8s1.6,0.3,2.2,0.8
		s0.8,1.1,0.8,1.9c0,0.9-0.3,1.6-0.8,2.2c-0.3,0.4-0.8,0.8-1.6,1.3l2.4,2.9c0.2-0.5,0.3-0.8,0.3-1.1c0.1-0.2,0.1-0.6,0.2-1h1.5
		c-0.1,0.9-0.3,1.7-0.6,2.4c-0.3,0.8-0.5,1.1-0.5,0.9l2.4,2.9h-2.1l-1.2-1.5c-0.5,0.5-0.9,0.9-1.4,1.2c-0.7,0.4-1.5,0.6-2.5,0.6
		c-1.4,0-2.4-0.4-3-1.1s-0.9-1.6-0.9-2.5c0-1,0.3-1.8,0.9-2.5c0.4-0.4,1.1-0.9,2.1-1.5C187.2,267.4,186.8,266.9,186.6,266.5
		L186.6,266.5z M190.5,273.9c0.5-0.3,0.9-0.6,1.1-1l-3-3.6c-0.9,0.6-1.4,1-1.7,1.3c-0.4,0.5-0.6,1-0.6,1.6c0,0.7,0.3,1.2,0.8,1.6
		c0.5,0.4,1.1,0.6,1.6,0.6C189.5,274.3,190,274.2,190.5,273.9L190.5,273.9z M190.4,266.4c0.4-0.4,0.5-0.9,0.5-1.4
		c0-0.4-0.1-0.7-0.4-1s-0.6-0.4-1.1-0.4c-0.7,0-1.1,0.2-1.4,0.7c-0.1,0.2-0.2,0.5-0.2,0.8c0,0.4,0.1,0.7,0.3,1.1s0.5,0.8,1,1.3
		C189.8,267,190.2,266.6,190.4,266.4L190.4,266.4z"/>
	<path class="st0" d="M203,262.2h6c1.2,0,2.1,0.3,2.9,1s1.1,1.6,1.1,2.8c0,1-0.3,1.9-1,2.7c-0.6,0.8-1.6,1.1-3,1.1h-4.2v5.6H203
		L203,262.2L203,262.2z M210,264c-0.4-0.2-0.9-0.3-1.6-0.3h-3.6v4.6h3.6c0.8,0,1.5-0.2,2-0.5s0.8-1,0.8-1.8
		C211,265,210.7,264.4,210,264L210,264z"/>
	<path class="st0" d="M215.3,262.2h6.1c1,0,1.8,0.1,2.5,0.4c1.2,0.6,1.9,1.6,1.9,3.1c0,0.8-0.2,1.4-0.5,2c-0.3,0.5-0.8,0.9-1.4,1.2
		c0.5,0.2,0.9,0.5,1.2,0.8s0.4,0.9,0.4,1.7l0.1,1.8c0,0.5,0.1,0.9,0.1,1.1c0.1,0.4,0.3,0.7,0.6,0.8v0.3h-2.2
		c-0.1-0.1-0.1-0.3-0.1-0.4c0-0.2-0.1-0.5-0.1-1l-0.1-2.2c0-0.9-0.4-1.5-1-1.7c-0.3-0.2-0.9-0.2-1.6-0.2h-4.1v5.7h-1.8V262.2
		L215.3,262.2z M221.3,268.3c0.8,0,1.5-0.2,2-0.5c0.5-0.3,0.7-0.9,0.7-1.8c0-0.9-0.3-1.6-1-1.9c-0.4-0.2-0.9-0.3-1.5-0.3h-4.4v4.5
		L221.3,268.3L221.3,268.3z"/>
	<path class="st0" d="M228.6,262.2h9.7v1.6h-7.9v4h7.3v1.5h-7.3v4.5h8.1v1.6h-9.8L228.6,262.2L228.6,262.2z"/>
	<path class="st0" d="M241.9,271.2c0,0.8,0.2,1.4,0.5,1.8c0.6,0.9,1.6,1.3,3.1,1.3c0.7,0,1.3-0.1,1.8-0.3c1.1-0.4,1.6-1,1.6-2
		c0-0.7-0.2-1.2-0.7-1.5c-0.5-0.3-1.2-0.6-2.1-0.8l-1.8-0.4c-1.2-0.3-2-0.6-2.5-0.9c-0.8-0.5-1.3-1.4-1.3-2.5c0-1.2,0.4-2.2,1.2-2.9
		c0.8-0.8,2-1.1,3.5-1.1c1.4,0,2.6,0.3,3.5,1c1,0.7,1.5,1.7,1.5,3.2h-1.7c-0.1-0.7-0.3-1.2-0.6-1.6c-0.6-0.7-1.5-1-2.8-1
		c-1.1,0-1.8,0.2-2.3,0.7c-0.5,0.5-0.7,1-0.7,1.5c0,0.6,0.3,1.1,0.8,1.4c0.4,0.2,1.2,0.4,2.4,0.7l1.9,0.4c0.9,0.2,1.6,0.5,2.1,0.8
		c0.8,0.6,1.3,1.5,1.3,2.7c0,1.5-0.5,2.5-1.6,3.1s-2.3,1-3.7,1c-1.6,0-2.9-0.4-3.9-1.3s-1.4-2-1.4-3.4L241.9,271.2L241.9,271.2z"/>
	<path class="st0" d="M253.3,262.2h9.7v1.6H255v4h7.3v1.5H255v4.5h8v1.6h-9.8L253.3,262.2L253.3,262.2z"/>
	<path class="st0" d="M265.4,262.2h2.1l6.7,10.7v-10.7h1.7v13.2h-2l-6.8-10.7v10.7h-1.7V262.2z"/>
	<path class="st0" d="M288.2,263.2c0.9,0.9,1.4,1.9,1.5,3H288c-0.2-0.9-0.6-1.5-1.2-2c-0.6-0.5-1.4-0.8-2.5-0.8
		c-1.3,0-2.4,0.5-3.2,1.4c-0.8,0.9-1.2,2.3-1.2,4.2c0,1.5,0.4,2.8,1.1,3.8s1.8,1.5,3.2,1.5c1.3,0,2.3-0.5,3-1.5
		c0.4-0.5,0.6-1.2,0.8-2.1h1.8c-0.2,1.4-0.7,2.6-1.5,3.5c-1,1.1-2.5,1.7-4.3,1.7c-1.5,0-2.8-0.5-3.9-1.4c-1.4-1.2-2.1-3.1-2.1-5.7
		c0-2,0.5-3.6,1.5-4.8c1.1-1.4,2.7-2,4.6-2C286,261.8,287.3,262.3,288.2,263.2L288.2,263.2z"/>
	<path class="st0" d="M292.2,262.2h9.7v1.6H294v4h7.3v1.5H294v4.5h8v1.6h-9.8L292.2,262.2L292.2,262.2z"/>
	<path class="st0" d="M304.6,273.5h1.9v2h-1.9V273.5z"/>
	<path class="st0" d="M9,284.4l2.5,10.8l3-10.8h1.9l3,10.8l2.5-10.8h2l-3.5,13.2h-1.9l-3.1-11l-3.1,11h-1.9L7,284.4H9z"/>
	<path class="st0" d="M25.6,284.4h1.8v5.5h6.9v-5.5h1.8v13.2h-1.8v-6.2h-6.9v6.2h-1.8V284.4z"/>
	<path class="st0" d="M39,284.4h9.7v1.6h-7.9v4h7.3v1.5h-7.3v4.5h8v1.6H39L39,284.4L39,284.4z"/>
	<path class="st0" d="M51.4,284.4h6.1c1,0,1.8,0.1,2.5,0.4c1.2,0.6,1.9,1.6,1.9,3.1c0,0.8-0.2,1.4-0.5,2c-0.3,0.5-0.8,0.9-1.4,1.2
		c0.5,0.2,0.9,0.5,1.2,0.8s0.4,0.9,0.4,1.7l0.1,1.8c0,0.5,0.1,0.9,0.1,1.1c0.1,0.4,0.3,0.7,0.6,0.8v0.3h-2.2
		c-0.1-0.1-0.1-0.3-0.1-0.4c0-0.2-0.1-0.5-0.1-1l-0.1-2.2c0-0.9-0.4-1.5-1-1.7c-0.3-0.2-0.9-0.2-1.6-0.2h-4.1v5.7h-1.8L51.4,284.4
		L51.4,284.4z M57.3,290.4c0.8,0,1.5-0.2,2-0.5c0.5-0.3,0.7-0.9,0.7-1.8c0-0.9-0.3-1.6-1-1.9c-0.4-0.2-0.9-0.3-1.5-0.3h-4.4v4.5
		L57.3,290.4L57.3,290.4z"/>
	<path class="st0" d="M64.7,284.4h9.7v1.6h-7.9v4h7.3v1.5h-7.3v4.5h8.1v1.6h-9.8L64.7,284.4L64.7,284.4z"/>
	<path class="st0" d="M82.4,284.4h1.8v13.2h-1.8V284.4z"/>
	<path class="st0" d="M87.2,284.4h5.4c1.8,0,3.2,0.6,4.2,1.9c0.9,1.2,1.3,2.7,1.3,4.5c0,1.4-0.3,2.7-0.8,3.8c-0.9,2-2.5,3-4.8,3
		h-5.3V284.4L87.2,284.4z M92.2,296.1c0.6,0,1.1-0.1,1.5-0.2c0.7-0.2,1.3-0.7,1.7-1.4c0.3-0.5,0.6-1.2,0.8-2.1
		c0.1-0.5,0.1-1,0.1-1.4c0-1.6-0.3-2.9-1-3.8s-1.7-1.4-3.2-1.4H89v10.2H92.2L92.2,296.1z"/>
	<path class="st0" d="M100.6,284.4h9.7v1.6h-7.9v4h7.3v1.5h-7.3v4.5h8.1v1.6h-9.8L100.6,284.4L100.6,284.4z"/>
	<path class="st0" d="M116.6,284.4h2l4.8,13.2h-2l-1.3-4h-5.2l-1.4,4h-1.8L116.6,284.4L116.6,284.4z M119.6,292.2l-2-5.9l-2.1,5.9
		H119.6z"/>
	<path class="st0" d="M126.3,293.3c0,0.8,0.2,1.4,0.5,1.8c0.6,0.9,1.6,1.3,3.2,1.3c0.7,0,1.3-0.1,1.8-0.3c1.1-0.4,1.6-1,1.6-2
		c0-0.7-0.2-1.2-0.7-1.5c-0.5-0.3-1.2-0.6-2.1-0.8l-1.8-0.4c-1.2-0.3-2-0.6-2.5-0.9c-0.8-0.5-1.3-1.4-1.3-2.5c0-1.2,0.4-2.2,1.2-2.9
		c0.8-0.8,2-1.1,3.5-1.1c1.4,0,2.6,0.3,3.5,1c1,0.7,1.5,1.7,1.5,3.2h-1.7c-0.1-0.7-0.3-1.2-0.6-1.6c-0.6-0.7-1.5-1-2.8-1
		c-1.1,0-1.8,0.2-2.3,0.7s-0.7,1-0.7,1.5c0,0.6,0.3,1.1,0.8,1.4c0.3,0.2,1.2,0.4,2.4,0.7l1.9,0.4c0.9,0.2,1.6,0.5,2.1,0.8
		c0.8,0.6,1.3,1.5,1.3,2.7c0,1.5-0.5,2.5-1.6,3.1s-2.3,1-3.7,1c-1.6,0-2.9-0.4-3.9-1.3s-1.4-2-1.4-3.4L126.3,293.3L126.3,293.3z"/>
	<path class="st0" d="M151.9,284.4v1.6h-4.5v11.7h-1.8v-11.7h-4.5v-1.6H151.9L151.9,284.4z"/>
	<path class="st0" d="M155.4,284.4v8.2c0,1,0.2,1.8,0.5,2.4c0.5,1,1.4,1.4,2.7,1.4c1.5,0,2.6-0.5,3.1-1.6c0.3-0.6,0.4-1.3,0.4-2.3
		v-8.2h1.8v7.4c0,1.6-0.2,2.9-0.7,3.8c-0.8,1.6-2.3,2.4-4.6,2.4s-3.8-0.8-4.6-2.4c-0.4-0.9-0.7-2.1-0.7-3.8v-7.4H155.4L155.4,284.4z
		"/>
	<path class="st0" d="M167.1,284.4h6.1c1,0,1.8,0.1,2.5,0.4c1.2,0.6,1.9,1.6,1.9,3.1c0,0.8-0.2,1.4-0.5,2c-0.3,0.5-0.8,0.9-1.4,1.2
		c0.5,0.2,0.9,0.5,1.2,0.8s0.4,0.9,0.4,1.7l0.1,1.8c0,0.5,0.1,0.9,0.1,1.1c0.1,0.4,0.3,0.7,0.6,0.8v0.3h-2.2
		c-0.1-0.1-0.1-0.3-0.1-0.4c0-0.2-0.1-0.5-0.1-1l-0.1-2.2c0-0.9-0.4-1.5-1-1.7c-0.3-0.2-0.9-0.2-1.6-0.2h-4.1v5.7h-1.8V284.4
		L167.1,284.4z M173,290.4c0.8,0,1.5-0.2,2-0.5c0.5-0.3,0.7-0.9,0.7-1.8c0-0.9-0.3-1.6-1-1.9c-0.4-0.2-0.9-0.3-1.5-0.3h-4.4v4.5
		L173,290.4L173,290.4z"/>
	<path class="st0" d="M180.2,284.4h2.1l6.7,10.7v-10.7h1.7v13.2h-2l-6.8-10.7v10.7h-1.7V284.4z"/>
	<path class="st0" d="M199.1,284.4h1.8v13.2h-1.8V284.4z"/>
	<path class="st0" d="M203.8,284.4h2.1l6.7,10.7v-10.7h1.7v13.2h-2l-6.8-10.7v10.7h-1.7V284.4z"/>
	<path class="st0" d="M226.8,284.4v1.6h-4.5v11.7h-1.8v-11.7H216v-1.6H226.8L226.8,284.4z"/>
	<path class="st0" d="M239,286.3c0.9,1.2,1.3,2.7,1.3,4.5c0,2-0.5,3.6-1.5,4.9c-1.2,1.5-2.9,2.3-5,2.3c-2,0-3.6-0.7-4.8-2
		c-1-1.3-1.6-2.9-1.6-4.9c0-1.8,0.4-3.3,1.3-4.6c1.1-1.6,2.8-2.5,5.1-2.5S237.9,284.8,239,286.3L239,286.3z M237.4,294.7
		c0.7-1.1,1.1-2.4,1.1-3.9c0-1.6-0.4-2.8-1.2-3.8s-1.9-1.4-3.3-1.4s-2.5,0.5-3.4,1.4c-0.9,0.9-1.3,2.3-1.3,4.2
		c0,1.5,0.4,2.7,1.1,3.7s1.9,1.5,3.6,1.5S236.7,295.8,237.4,294.7L237.4,294.7z"/>
	<path class="st0" d="M248.8,293.3c0,0.8,0.2,1.4,0.5,1.8c0.6,0.9,1.6,1.3,3.1,1.3c0.7,0,1.3-0.1,1.8-0.3c1.1-0.4,1.6-1,1.6-2
		c0-0.7-0.2-1.2-0.7-1.5c-0.5-0.3-1.2-0.6-2.1-0.8l-1.8-0.4c-1.2-0.3-2-0.6-2.5-0.9c-0.8-0.5-1.3-1.4-1.3-2.5c0-1.2,0.4-2.2,1.2-2.9
		c0.8-0.8,2-1.1,3.5-1.1c1.4,0,2.6,0.3,3.5,1c1,0.7,1.5,1.7,1.5,3.2h-1.7c-0.1-0.7-0.3-1.2-0.6-1.6c-0.6-0.7-1.5-1-2.8-1
		c-1.1,0-1.8,0.2-2.3,0.7c-0.5,0.5-0.7,1-0.7,1.5c0,0.6,0.3,1.1,0.8,1.4c0.4,0.2,1.2,0.4,2.4,0.7l1.9,0.4c0.9,0.2,1.6,0.5,2.1,0.8
		c0.8,0.6,1.3,1.5,1.3,2.7c0,1.5-0.5,2.5-1.6,3.1s-2.3,1-3.7,1c-1.6,0-2.9-0.4-3.9-1.3s-1.4-2-1.4-3.4L248.8,293.3L248.8,293.3z"/>
	<path class="st0" d="M269.5,284.4v1.6h-4.5v11.7h-1.8v-11.7h-4.5v-1.6H269.5L269.5,284.4z"/>
	<path class="st0" d="M273.7,284.4h2l4.8,13.2h-2l-1.3-4H272l-1.4,4h-1.8L273.7,284.4L273.7,284.4z M276.6,292.2l-2-5.9l-2.1,5.9
		H276.6L276.6,292.2z"/>
	<path class="st0" d="M290.4,284.4v1.6H286v11.7h-1.8v-11.7h-4.5v-1.6H290.4L290.4,284.4z"/>
	<path class="st0" d="M292.2,284.4h9.7v1.6H294v4h7.3v1.5H294v4.5h8v1.6h-9.8L292.2,284.4L292.2,284.4z"/>
	<path class="st0" d="M304.3,284.4h2.6l3.8,11.2l3.8-11.2h2.5v13.2h-1.7v-7.8c0-0.3,0-0.7,0-1.3c0-0.6,0-1.3,0-2l-3.8,11.2h-1.8
		l-3.8-11.2v0.4c0,0.3,0,0.8,0,1.5s0,1.1,0,1.5v7.8h-1.7L304.3,284.4L304.3,284.4z"/>
	<path class="st0" d="M319.9,284.4h9.7v1.6h-7.9v4h7.3v1.5h-7.3v4.5h8v1.6h-9.8L319.9,284.4L319.9,284.4z"/>
	<path class="st0" d="M332.1,284.4h2.1l6.7,10.7v-10.7h1.7v13.2h-2l-6.8-10.7v10.7h-1.7V284.4z"/>
	<path class="st0" d="M355.1,284.4v1.6h-4.5v11.7h-1.8v-11.7h-4.5v-1.6H355.1L355.1,284.4z"/>
	<path class="st0" d="M357.9,293.3c0,0.8,0.2,1.4,0.5,1.8c0.6,0.9,1.6,1.3,3.1,1.3c0.7,0,1.3-0.1,1.8-0.3c1.1-0.4,1.6-1,1.6-2
		c0-0.7-0.2-1.2-0.7-1.5c-0.5-0.3-1.2-0.6-2.1-0.8l-1.8-0.4c-1.2-0.3-2-0.6-2.5-0.9c-0.8-0.5-1.3-1.4-1.3-2.5c0-1.2,0.4-2.2,1.2-2.9
		s2-1.1,3.5-1.1c1.4,0,2.6,0.3,3.5,1s1.5,1.7,1.5,3.2h-1.7c-0.1-0.7-0.3-1.2-0.6-1.6c-0.5-0.7-1.5-1-2.8-1c-1.1,0-1.8,0.2-2.3,0.7
		s-0.7,1-0.7,1.5c0,0.6,0.3,1.1,0.8,1.4c0.4,0.2,1.2,0.4,2.4,0.7l1.9,0.4c0.9,0.2,1.6,0.5,2.1,0.8c0.8,0.6,1.3,1.5,1.3,2.7
		c0,1.5-0.5,2.5-1.6,3.1s-2.3,1-3.7,1c-1.6,0-2.9-0.4-3.9-1.3s-1.4-2-1.4-3.4L357.9,293.3L357.9,293.3z"/>
	<path class="st0" d="M369.2,295.6h1.9v2h-1.9V295.6z"/>
</g>
</svg>
